<svg id="svg" version="1.1" xmlns="http://www.w3.org/2000/svg" xmlns:xlink="http://www.w3.org/1999/xlink" width="400" height="100" viewBox="0, 0, 400,100"><g id="svgg"><path id="path0" d="M16.167 12.589 L 16.167 13.179 15.125 13.131 C 14.105 13.084,14.082 13.092,14.032 13.532 C 13.992 13.878,13.878 13.992,13.532 14.032 C 13.092 14.082,13.084 14.105,13.131 15.125 L 13.179 16.167 12.589 16.167 L 12.000 16.167 12.000 20.833 L 12.000 25.500 12.566 25.500 C 13.102 25.500,13.135 25.534,13.194 26.153 C 13.228 26.512,13.203 26.773,13.139 26.733 C 13.075 26.693,13.044 26.868,13.070 27.122 C 13.107 27.478,13.217 27.595,13.549 27.635 C 13.876 27.674,13.992 27.794,14.032 28.135 C 14.081 28.562,14.133 28.586,15.125 28.633 C 16.156 28.682,16.167 28.687,16.167 29.175 L 16.167 29.667 200.000 29.667 L 383.833 29.667 383.833 29.175 C 383.833 28.687,383.844 28.682,384.875 28.633 C 385.867 28.586,385.919 28.562,385.968 28.135 C 386.008 27.789,386.122 27.675,386.468 27.635 C 386.895 27.586,386.919 27.534,386.966 26.542 C 387.015 25.510,387.021 25.500,387.508 25.500 L 388.000 25.500 388.000 20.833 L 388.000 16.167 387.508 16.167 C 387.021 16.167,387.015 16.156,386.966 15.125 C 386.919 14.133,386.895 14.081,386.468 14.032 C 386.128 13.992,386.008 13.876,385.968 13.549 C 385.928 13.217,385.811 13.107,385.455 13.070 C 385.202 13.044,385.027 13.075,385.066 13.139 C 385.106 13.203,384.845 13.228,384.486 13.194 C 383.867 13.135,383.833 13.102,383.833 12.566 L 383.833 12.000 200.000 12.000 L 16.167 12.000 16.167 12.589 M200.093 12.708 L 382.917 12.750 200.014 12.750 C 37.575 12.750,17.103 12.722,17.043 12.500 C 16.992 12.315,17.013 12.304,17.122 12.458 C 17.240 12.625,54.098 12.675,200.093 12.708 M382.833 13.260 C 382.833 13.419,382.914 13.474,383.042 13.402 C 383.208 13.308,383.208 13.329,383.042 13.509 C 382.652 13.929,382.832 14.000,384.074 13.918 C 384.827 13.868,385.356 13.902,385.420 14.005 C 385.478 14.099,385.425 14.154,385.304 14.129 C 385.164 14.100,385.064 14.282,385.031 14.625 C 384.982 15.130,385.014 15.167,385.489 15.167 L 386.000 15.167 386.000 16.167 C 386.000 16.717,386.056 17.158,386.125 17.147 C 387.019 17.006,386.984 16.863,387.036 20.878 L 387.083 24.590 386.570 24.530 L 386.056 24.470 386.020 25.472 C 385.990 26.286,386.040 26.506,386.283 26.647 C 386.507 26.775,386.377 26.794,385.772 26.723 L 384.960 26.627 385.056 27.438 C 385.128 28.043,385.108 28.174,384.980 27.950 C 384.840 27.706,384.620 27.657,383.805 27.686 L 382.803 27.722 382.863 28.236 L 382.923 28.750 200.045 28.708 L 17.167 28.666 17.147 28.292 C 17.136 28.085,17.136 27.860,17.147 27.792 C 17.158 27.723,16.717 27.667,16.167 27.667 C 15.139 27.667,15.057 27.602,15.157 26.864 C 15.177 26.711,15.017 26.660,14.635 26.697 C 14.284 26.731,14.100 26.830,14.129 26.971 C 14.154 27.092,14.099 27.144,14.005 27.087 C 13.902 27.023,13.868 26.493,13.918 25.741 C 14.000 24.499,13.929 24.319,13.509 24.708 C 13.329 24.875,13.308 24.875,13.402 24.708 C 13.474 24.580,13.419 24.500,13.260 24.500 C 13.032 24.500,13.000 24.043,13.000 20.833 L 13.000 17.167 13.516 17.167 L 14.033 17.167 13.917 16.167 L 13.801 15.167 14.494 15.167 C 15.055 15.167,15.182 15.111,15.158 14.875 C 15.051 13.828,15.090 13.792,16.167 13.917 L 17.167 14.033 17.167 13.516 L 17.167 13.000 200.000 13.000 C 365.483 13.000,382.833 13.025,382.833 13.260 M12.755 20.847 L 12.760 24.583 12.710 20.924 C 12.674 18.268,12.604 17.226,12.455 17.120 C 12.306 17.014,12.318 16.993,12.500 17.043 C 12.713 17.101,12.751 17.670,12.755 20.847 M16.167 70.923 L 16.167 71.512 15.125 71.464 C 14.105 71.418,14.082 71.426,14.032 71.865 C 13.992 72.211,13.878 72.325,13.532 72.365 C 13.092 72.416,13.084 72.438,13.131 73.458 L 13.179 74.500 12.589 74.500 L 12.000 74.500 12.000 79.167 L 12.000 83.833 12.566 83.833 C 13.102 83.833,13.135 83.867,13.194 84.486 C 13.228 84.845,13.203 85.106,13.139 85.066 C 13.075 85.027,13.044 85.202,13.070 85.455 C 13.107 85.811,13.217 85.928,13.549 85.968 C 13.876 86.008,13.992 86.128,14.032 86.468 C 14.081 86.895,14.133 86.919,15.125 86.966 C 16.156 87.015,16.167 87.021,16.167 87.508 L 16.167 88.000 200.000 88.000 L 383.833 88.000 383.833 87.508 C 383.833 87.021,383.844 87.015,384.875 86.966 C 385.867 86.919,385.919 86.895,385.968 86.468 C 386.008 86.122,386.122 86.008,386.468 85.968 C 386.895 85.919,386.919 85.867,386.966 84.875 C 387.015 83.844,387.021 83.833,387.508 83.833 L 388.000 83.833 388.000 79.167 L 388.000 74.500 387.508 74.500 C 387.021 74.500,387.015 74.490,386.966 73.458 C 386.919 72.466,386.895 72.414,386.468 72.365 C 386.128 72.326,386.008 72.210,385.968 71.882 C 385.928 71.550,385.811 71.441,385.455 71.404 C 385.202 71.377,385.027 71.408,385.066 71.472 C 385.106 71.537,384.845 71.561,384.486 71.527 C 383.867 71.468,383.833 71.436,383.833 70.899 L 383.833 70.333 200.000 70.333 L 16.167 70.333 16.167 70.923 M200.093 71.042 L 382.917 71.084 200.014 71.083 C 37.575 71.083,17.103 71.055,17.043 70.833 C 16.992 70.648,17.013 70.637,17.122 70.792 C 17.240 70.958,54.098 71.008,200.093 71.042 M382.833 71.593 C 382.833 71.753,382.914 71.808,383.042 71.735 C 383.208 71.641,383.208 71.663,383.042 71.842 C 382.652 72.262,382.832 72.333,384.074 72.251 C 384.827 72.201,385.356 72.236,385.420 72.339 C 385.478 72.432,385.425 72.488,385.304 72.462 C 385.164 72.433,385.064 72.616,385.031 72.958 C 384.982 73.463,385.014 73.500,385.489 73.500 L 386.000 73.500 386.000 74.500 C 386.000 75.050,386.056 75.491,386.125 75.480 C 387.019 75.339,386.984 75.197,387.036 79.212 L 387.083 82.924 386.570 82.864 L 386.056 82.803 386.020 83.805 C 385.990 84.620,386.040 84.840,386.283 84.980 C 386.507 85.108,386.377 85.128,385.772 85.056 L 384.960 84.960 385.056 85.772 C 385.128 86.377,385.108 86.507,384.980 86.283 C 384.840 86.040,384.620 85.990,383.805 86.020 L 382.803 86.056 382.863 86.570 L 382.923 87.083 200.045 87.042 L 17.167 87.000 17.147 86.625 C 17.136 86.419,17.136 86.194,17.147 86.125 C 17.158 86.056,16.717 86.000,16.167 86.000 C 15.139 86.000,15.057 85.935,15.157 85.197 C 15.177 85.045,15.017 84.994,14.635 85.030 C 14.284 85.064,14.100 85.164,14.129 85.304 C 14.154 85.425,14.099 85.478,14.005 85.420 C 13.902 85.356,13.868 84.827,13.918 84.074 C 14.000 82.832,13.929 82.652,13.509 83.042 C 13.329 83.208,13.308 83.208,13.402 83.042 C 13.474 82.914,13.419 82.833,13.260 82.833 C 13.032 82.833,13.000 82.377,13.000 79.167 L 13.000 75.500 13.516 75.500 L 14.033 75.500 13.917 74.500 L 13.801 73.500 14.494 73.500 C 15.055 73.500,15.182 73.444,15.158 73.208 C 15.051 72.162,15.090 72.125,16.167 72.250 L 17.167 72.366 17.167 71.850 L 17.167 71.333 200.000 71.333 C 365.483 71.333,382.833 71.358,382.833 71.593 M12.755 79.180 L 12.760 82.917 12.710 79.258 C 12.674 76.601,12.604 75.559,12.455 75.453 C 12.306 75.348,12.318 75.327,12.500 75.376 C 12.713 75.434,12.751 76.004,12.755 79.180 " stroke="none" fill="#1c343c" fill-rule="evenodd"></path><path id="path1" d="M17.043 12.500 C 17.103 12.722,37.575 12.750,200.014 12.750 L 382.917 12.750 200.093 12.708 C 54.098 12.675,17.240 12.625,17.122 12.458 C 17.013 12.304,16.992 12.315,17.043 12.500 M15.294 13.118 C 15.501 13.158,15.801 13.156,15.960 13.115 C 16.120 13.073,15.950 13.040,15.583 13.042 C 15.217 13.044,15.086 13.078,15.294 13.118 M17.167 13.516 L 17.167 14.033 16.167 13.917 C 15.090 13.792,15.051 13.828,15.158 14.875 C 15.182 15.111,15.055 15.167,14.494 15.167 L 13.801 15.167 13.917 16.167 L 14.033 17.167 13.516 17.167 L 13.000 17.167 13.000 20.833 C 13.000 24.043,13.032 24.500,13.260 24.500 C 13.419 24.500,13.474 24.580,13.402 24.708 C 13.308 24.875,13.329 24.875,13.509 24.708 C 13.929 24.319,14.000 24.499,13.918 25.741 C 13.868 26.493,13.902 27.023,14.005 27.087 C 14.099 27.144,14.154 27.092,14.129 26.971 C 14.100 26.830,14.284 26.731,14.635 26.697 C 15.017 26.660,15.177 26.711,15.157 26.864 C 15.057 27.602,15.139 27.667,16.167 27.667 C 16.717 27.667,17.158 27.723,17.147 27.792 C 17.136 27.860,17.136 28.085,17.147 28.292 L 17.167 28.666 200.045 28.708 L 382.923 28.750 382.863 28.236 L 382.803 27.722 383.805 27.686 C 384.620 27.657,384.840 27.706,384.980 27.950 C 385.108 28.174,385.128 28.043,385.056 27.438 L 384.960 26.627 385.772 26.723 C 386.377 26.794,386.507 26.775,386.283 26.647 C 386.040 26.506,385.990 26.286,386.020 25.472 L 386.056 24.470 386.570 24.530 L 387.083 24.590 387.036 20.878 C 386.984 16.863,387.019 17.006,386.125 17.147 C 386.056 17.158,386.000 16.717,386.000 16.167 L 386.000 15.167 385.489 15.167 C 385.014 15.167,384.982 15.130,385.031 14.625 C 385.064 14.282,385.164 14.100,385.304 14.129 C 385.425 14.154,385.478 14.099,385.420 14.005 C 385.356 13.902,384.827 13.868,384.074 13.918 C 382.832 14.000,382.652 13.929,383.042 13.509 C 383.208 13.329,383.208 13.308,383.042 13.402 C 382.914 13.474,382.833 13.419,382.833 13.260 C 382.833 13.025,365.483 13.000,200.000 13.000 L 17.167 13.000 17.167 13.516 M383.833 13.066 C 383.833 13.102,384.127 13.160,384.486 13.194 C 384.845 13.228,385.103 13.199,385.059 13.128 C 384.980 13.000,383.833 12.942,383.833 13.066 M13.042 15.583 C 13.044 15.950,13.078 16.080,13.118 15.873 C 13.158 15.666,13.156 15.366,13.115 15.206 C 13.073 15.047,13.040 15.217,13.042 15.583 M12.455 17.120 C 12.604 17.226,12.674 18.268,12.710 20.924 L 12.760 24.583 12.755 20.847 C 12.751 17.670,12.713 17.101,12.500 17.043 C 12.318 16.993,12.306 17.014,12.455 17.120 M13.000 26.073 C 13.000 26.389,13.058 26.683,13.128 26.726 C 13.199 26.770,13.228 26.512,13.194 26.153 C 13.117 25.347,13.000 25.299,13.000 26.073 M17.043 70.833 C 17.103 71.055,37.575 71.083,200.014 71.083 L 382.917 71.084 200.093 71.042 C 54.098 71.008,17.240 70.958,17.122 70.792 C 17.013 70.637,16.992 70.648,17.043 70.833 M15.294 71.451 C 15.501 71.491,15.801 71.490,15.960 71.448 C 16.120 71.406,15.950 71.374,15.583 71.375 C 15.217 71.377,15.086 71.411,15.294 71.451 M17.167 71.850 L 17.167 72.366 16.167 72.250 C 15.090 72.125,15.051 72.162,15.158 73.208 C 15.182 73.444,15.055 73.500,14.494 73.500 L 13.801 73.500 13.917 74.500 L 14.033 75.500 13.516 75.500 L 13.000 75.500 13.000 79.167 C 13.000 82.377,13.032 82.833,13.260 82.833 C 13.419 82.833,13.474 82.914,13.402 83.042 C 13.308 83.208,13.329 83.208,13.509 83.042 C 13.929 82.652,14.000 82.832,13.918 84.074 C 13.868 84.827,13.902 85.356,14.005 85.420 C 14.099 85.478,14.154 85.425,14.129 85.304 C 14.100 85.164,14.284 85.064,14.635 85.030 C 15.017 84.994,15.177 85.045,15.157 85.197 C 15.057 85.935,15.139 86.000,16.167 86.000 C 16.717 86.000,17.158 86.056,17.147 86.125 C 17.136 86.194,17.136 86.419,17.147 86.625 L 17.167 87.000 200.045 87.042 L 382.923 87.083 382.863 86.570 L 382.803 86.056 383.805 86.020 C 384.620 85.990,384.840 86.040,384.980 86.283 C 385.108 86.507,385.128 86.377,385.056 85.772 L 384.960 84.960 385.772 85.056 C 386.377 85.128,386.507 85.108,386.283 84.980 C 386.040 84.840,385.990 84.620,386.020 83.805 L 386.056 82.803 386.570 82.864 L 387.083 82.924 387.036 79.212 C 386.984 75.197,387.019 75.339,386.125 75.480 C 386.056 75.491,386.000 75.050,386.000 74.500 L 386.000 73.500 385.489 73.500 C 385.014 73.500,384.982 73.463,385.031 72.958 C 385.064 72.616,385.164 72.433,385.304 72.462 C 385.425 72.488,385.478 72.432,385.420 72.339 C 385.356 72.236,384.827 72.201,384.074 72.251 C 382.832 72.333,382.652 72.262,383.042 71.842 C 383.208 71.663,383.208 71.641,383.042 71.735 C 382.914 71.808,382.833 71.753,382.833 71.593 C 382.833 71.358,365.483 71.333,200.000 71.333 L 17.167 71.333 17.167 71.850 M383.833 71.399 C 383.833 71.435,384.127 71.493,384.486 71.527 C 384.845 71.561,385.103 71.532,385.059 71.461 C 384.980 71.333,383.833 71.275,383.833 71.399 M13.042 73.917 C 13.044 74.283,13.078 74.414,13.118 74.206 C 13.158 73.999,13.156 73.699,13.115 73.540 C 13.073 73.380,13.040 73.550,13.042 73.917 M12.455 75.453 C 12.604 75.559,12.674 76.601,12.710 79.258 L 12.760 82.917 12.755 79.180 C 12.751 76.004,12.713 75.434,12.500 75.376 C 12.318 75.327,12.306 75.348,12.455 75.453 M13.000 84.407 C 13.000 84.722,13.058 85.016,13.128 85.059 C 13.199 85.103,13.228 84.845,13.194 84.486 C 13.117 83.680,13.000 83.632,13.000 84.407 " stroke="none" fill="#20343c" fill-rule="evenodd"></path><path id="path2" d="M17.043 12.500 C 17.103 12.722,37.575 12.750,200.014 12.750 L 382.917 12.750 200.093 12.708 C 54.098 12.675,17.240 12.625,17.122 12.458 C 17.013 12.304,16.992 12.315,17.043 12.500 M15.294 13.118 C 15.501 13.158,15.801 13.156,15.960 13.115 C 16.120 13.073,15.950 13.040,15.583 13.042 C 15.217 13.044,15.086 13.078,15.294 13.118 M17.167 13.516 L 17.167 14.033 16.167 13.917 C 15.090 13.792,15.051 13.828,15.158 14.875 C 15.182 15.111,15.055 15.167,14.494 15.167 L 13.801 15.167 13.917 16.167 L 14.033 17.167 13.516 17.167 L 13.000 17.167 13.000 20.833 C 13.000 24.043,13.032 24.500,13.260 24.500 C 13.419 24.500,13.474 24.580,13.402 24.708 C 13.308 24.875,13.329 24.875,13.509 24.708 C 13.929 24.319,14.000 24.499,13.918 25.741 C 13.868 26.493,13.902 27.023,14.005 27.087 C 14.099 27.144,14.154 27.092,14.129 26.971 C 14.100 26.830,14.284 26.731,14.635 26.697 C 15.017 26.660,15.177 26.711,15.157 26.864 C 15.057 27.602,15.139 27.667,16.167 27.667 C 16.717 27.667,17.158 27.723,17.147 27.792 C 17.136 27.860,17.136 28.085,17.147 28.292 L 17.167 28.666 200.045 28.708 L 382.923 28.750 382.863 28.236 L 382.803 27.722 383.805 27.686 C 384.620 27.657,384.840 27.706,384.980 27.950 C 385.108 28.174,385.128 28.043,385.056 27.438 L 384.960 26.627 385.772 26.723 C 386.377 26.794,386.507 26.775,386.283 26.647 C 386.040 26.506,385.990 26.286,386.020 25.472 L 386.056 24.470 386.570 24.530 L 387.083 24.590 387.036 20.878 C 386.984 16.863,387.019 17.006,386.125 17.147 C 386.056 17.158,386.000 16.717,386.000 16.167 L 386.000 15.167 385.489 15.167 C 385.014 15.167,384.982 15.130,385.031 14.625 C 385.064 14.282,385.164 14.100,385.304 14.129 C 385.425 14.154,385.478 14.099,385.420 14.005 C 385.356 13.902,384.827 13.868,384.074 13.918 C 382.832 14.000,382.652 13.929,383.042 13.509 C 383.208 13.329,383.208 13.308,383.042 13.402 C 382.914 13.474,382.833 13.419,382.833 13.260 C 382.833 13.025,365.483 13.000,200.000 13.000 L 17.167 13.000 17.167 13.516 M383.833 13.066 C 383.833 13.102,384.127 13.160,384.486 13.194 C 384.845 13.228,385.103 13.199,385.059 13.128 C 384.980 13.000,383.833 12.942,383.833 13.066 M13.042 15.583 C 13.044 15.950,13.078 16.080,13.118 15.873 C 13.158 15.666,13.156 15.366,13.115 15.206 C 13.073 15.047,13.040 15.217,13.042 15.583 M12.455 17.120 C 12.604 17.226,12.674 18.268,12.710 20.924 L 12.760 24.583 12.755 20.847 C 12.751 17.670,12.713 17.101,12.500 17.043 C 12.318 16.993,12.306 17.014,12.455 17.120 M13.000 26.073 C 13.000 26.389,13.058 26.683,13.128 26.726 C 13.199 26.770,13.228 26.512,13.194 26.153 C 13.117 25.347,13.000 25.299,13.000 26.073 M17.043 70.833 C 17.103 71.055,37.575 71.083,200.014 71.083 L 382.917 71.084 200.093 71.042 C 54.098 71.008,17.240 70.958,17.122 70.792 C 17.013 70.637,16.992 70.648,17.043 70.833 M15.294 71.451 C 15.501 71.491,15.801 71.490,15.960 71.448 C 16.120 71.406,15.950 71.374,15.583 71.375 C 15.217 71.377,15.086 71.411,15.294 71.451 M17.167 71.850 L 17.167 72.366 16.167 72.250 C 15.090 72.125,15.051 72.162,15.158 73.208 C 15.182 73.444,15.055 73.500,14.494 73.500 L 13.801 73.500 13.917 74.500 L 14.033 75.500 13.516 75.500 L 13.000 75.500 13.000 79.167 C 13.000 82.377,13.032 82.833,13.260 82.833 C 13.419 82.833,13.474 82.914,13.402 83.042 C 13.308 83.208,13.329 83.208,13.509 83.042 C 13.929 82.652,14.000 82.832,13.918 84.074 C 13.868 84.827,13.902 85.356,14.005 85.420 C 14.099 85.478,14.154 85.425,14.129 85.304 C 14.100 85.164,14.284 85.064,14.635 85.030 C 15.017 84.994,15.177 85.045,15.157 85.197 C 15.057 85.935,15.139 86.000,16.167 86.000 C 16.717 86.000,17.158 86.056,17.147 86.125 C 17.136 86.194,17.136 86.419,17.147 86.625 L 17.167 87.000 200.045 87.042 L 382.923 87.083 382.863 86.570 L 382.803 86.056 383.805 86.020 C 384.620 85.990,384.840 86.040,384.980 86.283 C 385.108 86.507,385.128 86.377,385.056 85.772 L 384.960 84.960 385.772 85.056 C 386.377 85.128,386.507 85.108,386.283 84.980 C 386.040 84.840,385.990 84.620,386.020 83.805 L 386.056 82.803 386.570 82.864 L 387.083 82.924 387.036 79.212 C 386.984 75.197,387.019 75.339,386.125 75.480 C 386.056 75.491,386.000 75.050,386.000 74.500 L 386.000 73.500 385.489 73.500 C 385.014 73.500,384.982 73.463,385.031 72.958 C 385.064 72.616,385.164 72.433,385.304 72.462 C 385.425 72.488,385.478 72.432,385.420 72.339 C 385.356 72.236,384.827 72.201,384.074 72.251 C 382.832 72.333,382.652 72.262,383.042 71.842 C 383.208 71.663,383.208 71.641,383.042 71.735 C 382.914 71.808,382.833 71.753,382.833 71.593 C 382.833 71.358,365.483 71.333,200.000 71.333 L 17.167 71.333 17.167 71.850 M383.833 71.399 C 383.833 71.435,384.127 71.493,384.486 71.527 C 384.845 71.561,385.103 71.532,385.059 71.461 C 384.980 71.333,383.833 71.275,383.833 71.399 M13.042 73.917 C 13.044 74.283,13.078 74.414,13.118 74.206 C 13.158 73.999,13.156 73.699,13.115 73.540 C 13.073 73.380,13.040 73.550,13.042 73.917 M12.455 75.453 C 12.604 75.559,12.674 76.601,12.710 79.258 L 12.760 82.917 12.755 79.180 C 12.751 76.004,12.713 75.434,12.500 75.376 C 12.318 75.327,12.306 75.348,12.455 75.453 M13.000 84.407 C 13.000 84.722,13.058 85.016,13.128 85.059 C 13.199 85.103,13.228 84.845,13.194 84.486 C 13.117 83.680,13.000 83.632,13.000 84.407 " stroke="none" fill="#20343c" fill-rule="evenodd"></path><path id="path3" d="M17.043 12.500 C 17.103 12.722,37.575 12.750,200.014 12.750 L 382.917 12.750 200.093 12.708 C 54.098 12.675,17.240 12.625,17.122 12.458 C 17.013 12.304,16.992 12.315,17.043 12.500 M15.294 13.118 C 15.501 13.158,15.801 13.156,15.960 13.115 C 16.120 13.073,15.950 13.040,15.583 13.042 C 15.217 13.044,15.086 13.078,15.294 13.118 M17.167 13.516 L 17.167 14.033 16.167 13.917 C 15.090 13.792,15.051 13.828,15.158 14.875 C 15.182 15.111,15.055 15.167,14.494 15.167 L 13.801 15.167 13.917 16.167 L 14.033 17.167 13.516 17.167 L 13.000 17.167 13.000 20.833 C 13.000 24.043,13.032 24.500,13.260 24.500 C 13.419 24.500,13.474 24.580,13.402 24.708 C 13.308 24.875,13.329 24.875,13.509 24.708 C 13.929 24.319,14.000 24.499,13.918 25.741 C 13.868 26.493,13.902 27.023,14.005 27.087 C 14.099 27.144,14.154 27.092,14.129 26.971 C 14.100 26.830,14.284 26.731,14.635 26.697 C 15.017 26.660,15.177 26.711,15.157 26.864 C 15.057 27.602,15.139 27.667,16.167 27.667 C 16.717 27.667,17.158 27.723,17.147 27.792 C 17.136 27.860,17.136 28.085,17.147 28.292 L 17.167 28.666 200.045 28.708 L 382.923 28.750 382.863 28.236 L 382.803 27.722 383.805 27.686 C 384.620 27.657,384.840 27.706,384.980 27.950 C 385.108 28.174,385.128 28.043,385.056 27.438 L 384.960 26.627 385.772 26.723 C 386.377 26.794,386.507 26.775,386.283 26.647 C 386.040 26.506,385.990 26.286,386.020 25.472 L 386.056 24.470 386.570 24.530 L 387.083 24.590 387.036 20.878 C 386.984 16.863,387.019 17.006,386.125 17.147 C 386.056 17.158,386.000 16.717,386.000 16.167 L 386.000 15.167 385.489 15.167 C 385.014 15.167,384.982 15.130,385.031 14.625 C 385.064 14.282,385.164 14.100,385.304 14.129 C 385.425 14.154,385.478 14.099,385.420 14.005 C 385.356 13.902,384.827 13.868,384.074 13.918 C 382.832 14.000,382.652 13.929,383.042 13.509 C 383.208 13.329,383.208 13.308,383.042 13.402 C 382.914 13.474,382.833 13.419,382.833 13.260 C 382.833 13.025,365.483 13.000,200.000 13.000 L 17.167 13.000 17.167 13.516 M383.833 13.066 C 383.833 13.102,384.127 13.160,384.486 13.194 C 384.845 13.228,385.103 13.199,385.059 13.128 C 384.980 13.000,383.833 12.942,383.833 13.066 M13.042 15.583 C 13.044 15.950,13.078 16.080,13.118 15.873 C 13.158 15.666,13.156 15.366,13.115 15.206 C 13.073 15.047,13.040 15.217,13.042 15.583 M12.455 17.120 C 12.604 17.226,12.674 18.268,12.710 20.924 L 12.760 24.583 12.755 20.847 C 12.751 17.670,12.713 17.101,12.500 17.043 C 12.318 16.993,12.306 17.014,12.455 17.120 M13.000 26.073 C 13.000 26.389,13.058 26.683,13.128 26.726 C 13.199 26.770,13.228 26.512,13.194 26.153 C 13.117 25.347,13.000 25.299,13.000 26.073 M17.043 70.833 C 17.103 71.055,37.575 71.083,200.014 71.083 L 382.917 71.084 200.093 71.042 C 54.098 71.008,17.240 70.958,17.122 70.792 C 17.013 70.637,16.992 70.648,17.043 70.833 M15.294 71.451 C 15.501 71.491,15.801 71.490,15.960 71.448 C 16.120 71.406,15.950 71.374,15.583 71.375 C 15.217 71.377,15.086 71.411,15.294 71.451 M17.167 71.850 L 17.167 72.366 16.167 72.250 C 15.090 72.125,15.051 72.162,15.158 73.208 C 15.182 73.444,15.055 73.500,14.494 73.500 L 13.801 73.500 13.917 74.500 L 14.033 75.500 13.516 75.500 L 13.000 75.500 13.000 79.167 C 13.000 82.377,13.032 82.833,13.260 82.833 C 13.419 82.833,13.474 82.914,13.402 83.042 C 13.308 83.208,13.329 83.208,13.509 83.042 C 13.929 82.652,14.000 82.832,13.918 84.074 C 13.868 84.827,13.902 85.356,14.005 85.420 C 14.099 85.478,14.154 85.425,14.129 85.304 C 14.100 85.164,14.284 85.064,14.635 85.030 C 15.017 84.994,15.177 85.045,15.157 85.197 C 15.057 85.935,15.139 86.000,16.167 86.000 C 16.717 86.000,17.158 86.056,17.147 86.125 C 17.136 86.194,17.136 86.419,17.147 86.625 L 17.167 87.000 200.045 87.042 L 382.923 87.083 382.863 86.570 L 382.803 86.056 383.805 86.020 C 384.620 85.990,384.840 86.040,384.980 86.283 C 385.108 86.507,385.128 86.377,385.056 85.772 L 384.960 84.960 385.772 85.056 C 386.377 85.128,386.507 85.108,386.283 84.980 C 386.040 84.840,385.990 84.620,386.020 83.805 L 386.056 82.803 386.570 82.864 L 387.083 82.924 387.036 79.212 C 386.984 75.197,387.019 75.339,386.125 75.480 C 386.056 75.491,386.000 75.050,386.000 74.500 L 386.000 73.500 385.489 73.500 C 385.014 73.500,384.982 73.463,385.031 72.958 C 385.064 72.616,385.164 72.433,385.304 72.462 C 385.425 72.488,385.478 72.432,385.420 72.339 C 385.356 72.236,384.827 72.201,384.074 72.251 C 382.832 72.333,382.652 72.262,383.042 71.842 C 383.208 71.663,383.208 71.641,383.042 71.735 C 382.914 71.808,382.833 71.753,382.833 71.593 C 382.833 71.358,365.483 71.333,200.000 71.333 L 17.167 71.333 17.167 71.850 M383.833 71.399 C 383.833 71.435,384.127 71.493,384.486 71.527 C 384.845 71.561,385.103 71.532,385.059 71.461 C 384.980 71.333,383.833 71.275,383.833 71.399 M13.042 73.917 C 13.044 74.283,13.078 74.414,13.118 74.206 C 13.158 73.999,13.156 73.699,13.115 73.540 C 13.073 73.380,13.040 73.550,13.042 73.917 M12.455 75.453 C 12.604 75.559,12.674 76.601,12.710 79.258 L 12.760 82.917 12.755 79.180 C 12.751 76.004,12.713 75.434,12.500 75.376 C 12.318 75.327,12.306 75.348,12.455 75.453 M13.000 84.407 C 13.000 84.722,13.058 85.016,13.128 85.059 C 13.199 85.103,13.228 84.845,13.194 84.486 C 13.117 83.680,13.000 83.632,13.000 84.407 " stroke="none" fill="#20343c" fill-rule="evenodd"></path><path id="path4" d="M17.043 12.500 C 17.103 12.722,37.575 12.750,200.014 12.750 L 382.917 12.750 200.093 12.708 C 54.098 12.675,17.240 12.625,17.122 12.458 C 17.013 12.304,16.992 12.315,17.043 12.500 M15.294 13.118 C 15.501 13.158,15.801 13.156,15.960 13.115 C 16.120 13.073,15.950 13.040,15.583 13.042 C 15.217 13.044,15.086 13.078,15.294 13.118 M17.167 13.516 L 17.167 14.033 16.167 13.917 C 15.090 13.792,15.051 13.828,15.158 14.875 C 15.182 15.111,15.055 15.167,14.494 15.167 L 13.801 15.167 13.917 16.167 L 14.033 17.167 13.516 17.167 L 13.000 17.167 13.000 20.833 C 13.000 24.043,13.032 24.500,13.260 24.500 C 13.419 24.500,13.474 24.580,13.402 24.708 C 13.308 24.875,13.329 24.875,13.509 24.708 C 13.929 24.319,14.000 24.499,13.918 25.741 C 13.868 26.493,13.902 27.023,14.005 27.087 C 14.099 27.144,14.154 27.092,14.129 26.971 C 14.100 26.830,14.284 26.731,14.635 26.697 C 15.017 26.660,15.177 26.711,15.157 26.864 C 15.057 27.602,15.139 27.667,16.167 27.667 C 16.717 27.667,17.158 27.723,17.147 27.792 C 17.136 27.860,17.136 28.085,17.147 28.292 L 17.167 28.666 200.045 28.708 L 382.923 28.750 382.863 28.236 L 382.803 27.722 383.805 27.686 C 384.620 27.657,384.840 27.706,384.980 27.950 C 385.108 28.174,385.128 28.043,385.056 27.438 L 384.960 26.627 385.772 26.723 C 386.377 26.794,386.507 26.775,386.283 26.647 C 386.040 26.506,385.990 26.286,386.020 25.472 L 386.056 24.470 386.570 24.530 L 387.083 24.590 387.036 20.878 C 386.984 16.863,387.019 17.006,386.125 17.147 C 386.056 17.158,386.000 16.717,386.000 16.167 L 386.000 15.167 385.489 15.167 C 385.014 15.167,384.982 15.130,385.031 14.625 C 385.064 14.282,385.164 14.100,385.304 14.129 C 385.425 14.154,385.478 14.099,385.420 14.005 C 385.356 13.902,384.827 13.868,384.074 13.918 C 382.832 14.000,382.652 13.929,383.042 13.509 C 383.208 13.329,383.208 13.308,383.042 13.402 C 382.914 13.474,382.833 13.419,382.833 13.260 C 382.833 13.025,365.483 13.000,200.000 13.000 L 17.167 13.000 17.167 13.516 M383.833 13.066 C 383.833 13.102,384.127 13.160,384.486 13.194 C 384.845 13.228,385.103 13.199,385.059 13.128 C 384.980 13.000,383.833 12.942,383.833 13.066 M13.042 15.583 C 13.044 15.950,13.078 16.080,13.118 15.873 C 13.158 15.666,13.156 15.366,13.115 15.206 C 13.073 15.047,13.040 15.217,13.042 15.583 M12.455 17.120 C 12.604 17.226,12.674 18.268,12.710 20.924 L 12.760 24.583 12.755 20.847 C 12.751 17.670,12.713 17.101,12.500 17.043 C 12.318 16.993,12.306 17.014,12.455 17.120 M13.000 26.073 C 13.000 26.389,13.058 26.683,13.128 26.726 C 13.199 26.770,13.228 26.512,13.194 26.153 C 13.117 25.347,13.000 25.299,13.000 26.073 M17.043 70.833 C 17.103 71.055,37.575 71.083,200.014 71.083 L 382.917 71.084 200.093 71.042 C 54.098 71.008,17.240 70.958,17.122 70.792 C 17.013 70.637,16.992 70.648,17.043 70.833 M15.294 71.451 C 15.501 71.491,15.801 71.490,15.960 71.448 C 16.120 71.406,15.950 71.374,15.583 71.375 C 15.217 71.377,15.086 71.411,15.294 71.451 M17.167 71.850 L 17.167 72.366 16.167 72.250 C 15.090 72.125,15.051 72.162,15.158 73.208 C 15.182 73.444,15.055 73.500,14.494 73.500 L 13.801 73.500 13.917 74.500 L 14.033 75.500 13.516 75.500 L 13.000 75.500 13.000 79.167 C 13.000 82.377,13.032 82.833,13.260 82.833 C 13.419 82.833,13.474 82.914,13.402 83.042 C 13.308 83.208,13.329 83.208,13.509 83.042 C 13.929 82.652,14.000 82.832,13.918 84.074 C 13.868 84.827,13.902 85.356,14.005 85.420 C 14.099 85.478,14.154 85.425,14.129 85.304 C 14.100 85.164,14.284 85.064,14.635 85.030 C 15.017 84.994,15.177 85.045,15.157 85.197 C 15.057 85.935,15.139 86.000,16.167 86.000 C 16.717 86.000,17.158 86.056,17.147 86.125 C 17.136 86.194,17.136 86.419,17.147 86.625 L 17.167 87.000 200.045 87.042 L 382.923 87.083 382.863 86.570 L 382.803 86.056 383.805 86.020 C 384.620 85.990,384.840 86.040,384.980 86.283 C 385.108 86.507,385.128 86.377,385.056 85.772 L 384.960 84.960 385.772 85.056 C 386.377 85.128,386.507 85.108,386.283 84.980 C 386.040 84.840,385.990 84.620,386.020 83.805 L 386.056 82.803 386.570 82.864 L 387.083 82.924 387.036 79.212 C 386.984 75.197,387.019 75.339,386.125 75.480 C 386.056 75.491,386.000 75.050,386.000 74.500 L 386.000 73.500 385.489 73.500 C 385.014 73.500,384.982 73.463,385.031 72.958 C 385.064 72.616,385.164 72.433,385.304 72.462 C 385.425 72.488,385.478 72.432,385.420 72.339 C 385.356 72.236,384.827 72.201,384.074 72.251 C 382.832 72.333,382.652 72.262,383.042 71.842 C 383.208 71.663,383.208 71.641,383.042 71.735 C 382.914 71.808,382.833 71.753,382.833 71.593 C 382.833 71.358,365.483 71.333,200.000 71.333 L 17.167 71.333 17.167 71.850 M383.833 71.399 C 383.833 71.435,384.127 71.493,384.486 71.527 C 384.845 71.561,385.103 71.532,385.059 71.461 C 384.980 71.333,383.833 71.275,383.833 71.399 M13.042 73.917 C 13.044 74.283,13.078 74.414,13.118 74.206 C 13.158 73.999,13.156 73.699,13.115 73.540 C 13.073 73.380,13.040 73.550,13.042 73.917 M12.455 75.453 C 12.604 75.559,12.674 76.601,12.710 79.258 L 12.760 82.917 12.755 79.180 C 12.751 76.004,12.713 75.434,12.500 75.376 C 12.318 75.327,12.306 75.348,12.455 75.453 M13.000 84.407 C 13.000 84.722,13.058 85.016,13.128 85.059 C 13.199 85.103,13.228 84.845,13.194 84.486 C 13.117 83.680,13.000 83.632,13.000 84.407 " stroke="none" fill="#20343c" fill-rule="evenodd"></path></g></svg>